<svg style="object-fit:cover" id="my-svg" version="1" baseProfile="full" width="100%" height="100%" viewBox="0 0 1536 750" xmlns="http://www.w3.org/2000/svg"><rect width="1536" height="750" fill="#111222"/><defs><linearGradient id="linear-gradient" x1="0" x2="1" y1="0" y2="1"><stop offset="0%" stop-color="#c81d1170"/><stop offset="100%" stop-color="#1c39bb70"/></linearGradient></defs><path transform="scale(1, -1)" style="transform-origin: center center 0px;" d="M 0,750 V 0,600 C 133.21428571428572,675.8571428571429 266.42857142857144,751.7142857142857 380,688 C 493.57142857142856,624.2857142857143 587.4999999999999,421 729,389 C 870.5000000000001,357 1059.5714285714287,496.28571428571433 1202,560 C 1344.4285714285713,623.7142857142857 1440.2142857142858,611.8571428571429 1536,600 C 1536,600 1536,750 1536,750 Z" stroke="none" stroke-width="0" fill="url(#linear-gradient)" class="transition-all duration-300 ease-in-out delay-150"/><defs><linearGradient id="linear-gradient" x1="0" x2="1" y1="0" y2="1"><stop offset="0%" stop-color="#c81d1180"/><stop offset="100%" stop-color="#1c39bb80"/></linearGradient></defs><path transform="scale(1, -1)" style="transform-origin: center center 0px;" d="M 0,750 V 0,900 C 123,848.2857142857142 246,796.5714285714286 376,827 C 506,857.4285714285714 643,970.0000000000001 760,967 C 877,963.9999999999999 974,845.4285714285714 1100,815 C 1226,784.5714285714286 1381,842.2857142857142 1536,900 C 1536,900 1536,750 1536,750 Z" stroke="none" stroke-width="0" fill="url(#linear-gradient)" class="transition-all duration-300 ease-in-out delay-150"/><defs><linearGradient id="linear-gradient" x1="0" x2="1" y1="0" y2="1"><stop offset="0%" stop-color="#c81d1190"/><stop offset="100%" stop-color="#1c39bb90"/></linearGradient></defs><path transform="scale(1, -1)" style="transform-origin: center center 0px;" d="M 0,750 V 0,1350 C 157.85714285714283,1427.0714285714284 315.71428571428567,1504.142857142857 454,1446 C 592.2857142857143,1387.857142857143 711,1194.5 806,1184 C 901,1173.5 972.2857142857142,1345.8571428571427 1090,1404 C 1207.7142857142858,1462.1428571428573 1371.857142857143,1406.0714285714287 1536,1350 C 1536,1350 1536,750 1536,750 Z" stroke="none" stroke-width="0" fill="url(#linear-gradient)" class="transition-all duration-300 ease-in-out delay-150"/><defs><linearGradient id="linear-gradient" x1="0" x2="1" y1="0" y2="1"><stop offset="0%" stop-color="#c81d11ff"/><stop offset="100%" stop-color="#1c39bbff"/></linearGradient></defs><path transform="scale(1, -1)" style="transform-origin: center center 0px;" d="M 0,750 V 0,2025 C 123.10714285714283,2015.5714285714284 246.21428571428567,2006.142857142857 385,2026 C 523.7857142857143,2045.857142857143 678.2500000000001,2095 804,2055 C 929.7499999999999,2015.0000000000002 1026.7857142857142,1885.8571428571431 1144,1866 C 1261.2142857142858,1846.1428571428569 1398.607142857143,1935.5714285714284 1536,2025 C 1536,2025 1536,750 1536,750 Z" stroke="none" stroke-width="0" fill="url(#linear-gradient)" class="transition-all duration-300 ease-in-out delay-150"/></svg>